<svg aria-hidden="true" style="position: absolute; width: 0; height: 0; overflow: hidden;" version="1.1" xmlns="http://www.w3.org/2000/svg" xmlns:xlink="http://www.w3.org/1999/xlink">
<defs>
<symbol id="logo" viewBox="0 0 138 32">
<title>logo</title>
<path d="M4.042 30.316v-15.926h-3.88v-4.568h5.619l-1.738 1.576v-2.951c0-2.668 0.687-4.675 2.061-6.023 1.401-1.347 3.49-2.021 6.265-2.021 0.62 0 1.28 0.040 1.981 0.121 0.728 0.081 1.361 0.243 1.9 0.485v4.689c-0.377-0.135-0.808-0.229-1.293-0.283-0.485-0.081-0.957-0.121-1.415-0.121-0.62 0-1.199 0.108-1.738 0.323-0.512 0.216-0.93 0.579-1.253 1.091-0.296 0.485-0.445 1.145-0.445 1.981v2.142l-0.849-1.011h6.023v4.568h-5.133v15.926h-6.104zM26.517 30.76c-2.183 0-4.083-0.431-5.699-1.293-1.59-0.889-2.829-2.129-3.719-3.719-0.862-1.59-1.294-3.49-1.294-5.699 0-2.183 0.431-4.069 1.294-5.659 0.889-1.59 2.129-2.816 3.719-3.678 1.617-0.862 3.517-1.293 5.699-1.293s4.083 0.431 5.699 1.293c1.617 0.862 2.856 2.088 3.719 3.678 0.889 1.59 1.334 3.476 1.334 5.659 0 2.21-0.445 4.109-1.334 5.699-0.862 1.59-2.102 2.829-3.719 3.719-1.617 0.862-3.517 1.293-5.699 1.293zM26.517 26.152c1.401 0 2.506-0.499 3.315-1.496 0.835-0.997 1.253-2.533 1.253-4.608s-0.418-3.597-1.253-4.568c-0.808-0.97-1.913-1.455-3.315-1.455s-2.52 0.485-3.355 1.455c-0.808 0.97-1.213 2.493-1.213 4.568s0.404 3.611 1.213 4.608c0.835 0.997 1.954 1.496 3.355 1.496zM50.103 30.76c-2.183 0-4.083-0.431-5.699-1.293-1.59-0.889-2.829-2.129-3.719-3.719-0.862-1.59-1.293-3.49-1.293-5.699 0-2.183 0.431-4.069 1.293-5.659 0.889-1.59 2.129-2.816 3.719-3.678 1.617-0.862 3.517-1.293 5.699-1.293s4.083 0.431 5.699 1.293c1.617 0.862 2.856 2.088 3.719 3.678 0.889 1.59 1.334 3.476 1.334 5.659 0 2.21-0.445 4.109-1.334 5.699-0.862 1.59-2.102 2.829-3.719 3.719-1.617 0.862-3.517 1.293-5.699 1.293zM50.103 26.152c1.401 0 2.506-0.499 3.315-1.496 0.835-0.997 1.253-2.533 1.253-4.608s-0.418-3.597-1.253-4.568c-0.808-0.97-1.913-1.455-3.315-1.455s-2.52 0.485-3.355 1.455c-0.808 0.97-1.213 2.493-1.213 4.568s0.404 3.611 1.213 4.608c0.835 0.997 1.954 1.496 3.355 1.496zM72.032 30.76c-1.779 0-3.355-0.431-4.729-1.293-1.347-0.862-2.412-2.088-3.193-3.678-0.755-1.59-1.132-3.503-1.132-5.74 0-2.21 0.377-4.109 1.132-5.699s1.819-2.803 3.193-3.638c1.374-0.862 2.951-1.293 4.729-1.293 1.617 0 3.059 0.391 4.325 1.172 1.293 0.755 2.156 1.779 2.587 3.072h-0.525v-13.096h6.104v29.75h-6.023v-4.002h0.525c-0.431 1.347-1.293 2.425-2.587 3.234s-2.762 1.213-4.406 1.213zM73.851 26.152c1.401 0 2.533-0.499 3.395-1.496s1.293-2.533 1.293-4.608c0-2.075-0.431-3.597-1.293-4.568s-1.994-1.455-3.395-1.455c-1.401 0-2.547 0.485-3.436 1.455-0.862 0.97-1.293 2.493-1.293 4.568s0.431 3.611 1.293 4.608c0.889 0.997 2.035 1.496 3.436 1.496zM88.72 30.316v-20.493h6.104v20.493h-6.104zM88.477 6.467v-5.699h6.548v5.699h-6.548zM109.311 30.76c-3.557 0-6.333-0.957-8.327-2.87s-2.991-4.514-2.991-7.801c0-2.129 0.418-3.988 1.253-5.578 0.862-1.59 2.048-2.829 3.557-3.719 1.536-0.916 3.328-1.374 5.376-1.374 2.021 0 3.705 0.431 5.053 1.293 1.374 0.862 2.398 2.075 3.072 3.638 0.701 1.536 1.051 3.328 1.051 5.376v1.415h-14.349v-3.032h9.903l-0.687 0.566c0-1.698-0.35-2.978-1.051-3.84-0.674-0.889-1.657-1.334-2.951-1.334-1.428 0-2.533 0.525-3.315 1.576-0.755 1.051-1.132 2.56-1.132 4.527v0.647c0 1.994 0.485 3.476 1.455 4.446 0.997 0.97 2.425 1.455 4.285 1.455 1.105 0 2.142-0.135 3.112-0.404 0.997-0.296 1.94-0.755 2.829-1.374l1.698 4.042c-1.024 0.755-2.21 1.334-3.557 1.738-1.32 0.404-2.749 0.606-4.285 0.606zM127.977 30.76c-1.832 0-3.503-0.202-5.012-0.606s-2.789-0.97-3.84-1.698l1.576-4.042c1.051 0.647 2.21 1.159 3.476 1.536 1.293 0.377 2.573 0.566 3.84 0.566 1.186 0 2.061-0.189 2.627-0.566s0.849-0.889 0.849-1.536c0-0.539-0.189-0.957-0.566-1.253-0.35-0.296-0.903-0.512-1.657-0.647l-4.163-0.768c-1.752-0.35-3.085-0.997-4.002-1.94s-1.374-2.169-1.374-3.678c0-1.32 0.35-2.479 1.051-3.476 0.728-1.024 1.765-1.819 3.112-2.385s2.924-0.849 4.729-0.849c1.536 0 2.991 0.189 4.365 0.566s2.547 0.957 3.517 1.738l-1.657 3.921c-0.835-0.62-1.805-1.118-2.91-1.496-1.078-0.377-2.115-0.566-3.112-0.566-1.293 0-2.223 0.216-2.789 0.647-0.566 0.404-0.849 0.93-0.849 1.576 0 0.485 0.162 0.889 0.485 1.213 0.35 0.323 0.876 0.566 1.576 0.728l4.204 0.768c1.805 0.323 3.18 0.93 4.123 1.819s1.415 2.115 1.415 3.678c0 1.428-0.377 2.641-1.132 3.638s-1.819 1.765-3.193 2.304c-1.347 0.539-2.91 0.808-4.689 0.808z"></path>
</symbol>
<symbol id="instagram" viewBox="0 0 32 32">
<title>instagram</title>
<path d="M28.718 10.756c-0.016-1.074-0.215-2.14-0.596-3.145-0.667-1.716-2.024-3.073-3.743-3.737-0.994-0.373-2.044-0.573-3.108-0.596-1.368-0.061-1.801-0.078-5.273-0.078s-3.916 0-5.274 0.078c-1.062 0.023-2.112 0.223-3.106 0.596-1.719 0.664-3.078 2.021-3.743 3.737-0.374 0.992-0.576 2.041-0.596 3.101-0.061 1.367-0.080 1.8-0.080 5.265s0 3.909 0.080 5.265c0.021 1.062 0.222 2.109 0.596 3.104 0.667 1.715 2.024 3.071 3.744 3.736 0.989 0.386 2.040 0.604 3.106 0.639 1.369 0.061 1.803 0.080 5.274 0.080s3.916 0 5.274-0.080c1.062-0.021 2.112-0.221 3.108-0.595 1.719-0.666 3.076-2.022 3.743-3.737 0.374-0.994 0.574-2.041 0.596-3.104 0.061-1.365 0.080-1.798 0.080-5.265-0.003-3.466-0.003-3.906-0.082-5.264zM15.99 22.531c-3.631 0-6.572-2.936-6.572-6.561s2.941-6.561 6.572-6.561c3.628 0 6.572 2.936 6.572 6.561s-2.944 6.561-6.572 6.561zM22.824 10.696c-0.849 0-1.532-0.684-1.532-1.53s0.684-1.53 1.532-1.53c0.846 0 1.531 0.684 1.531 1.53s-0.685 1.53-1.531 1.53z"></path>
<path d="M15.992 19.976c2.211 0 4.004-1.793 4.004-4.004s-1.793-4.004-4.004-4.004-4.004 1.793-4.004 4.004c0 2.211 1.793 4.004 4.004 4.004z"></path>
</symbol>
<symbol id="youtube" viewBox="0 0 32 32">
<title>youtube</title>
<path d="M31.68 9.507c0 0-0.32-2.311-1.28-3.302-1.173-1.321-2.56-1.321-3.2-1.431-4.48-0.33-11.2-0.33-11.2-0.33s-6.72 0-11.2 0.33c-0.64 0.11-2.027 0.11-3.2 1.431-0.96 0.99-1.28 3.302-1.28 3.302s-0.32 2.641-0.32 5.283v2.421c0 2.641 0.32 5.393 0.32 5.393s0.32 2.311 1.28 3.302c1.173 1.321 2.773 1.321 3.52 1.431 2.56 0.11 10.88 0.22 10.88 0.22s6.72 0 11.2-0.33c0.64-0.11 2.027-0.11 3.2-1.431 0.96-0.99 1.28-3.302 1.28-3.302s0.32-2.641 0.32-5.283v-2.421c0-2.641-0.32-5.283-0.32-5.283zM12.693 20.292v-9.244l8.64 4.622-8.64 4.622z"></path>
</symbol>
<symbol id="facebook" viewBox="0 0 32 32">
<title>facebook</title>
<path d="M20.693 1.92c0.32 0 0.64 0 1.28 0v4.8c-0.32 0-0.96 0-1.6 0s-1.28 0-1.6 0.32c-0.32 0.32-0.32 0.64-0.32 1.387 0 0.64 0 1.067 0 1.707h3.52v4.053h-3.52v17.6h-5.44v-17.707h-2.88v-4.053h2.88v-1.387c0-2.347 0.32-4.053 0.96-4.8 0.96-1.387 2.88-2.027 5.76-2.027 0.32 0.107 0.64 0.107 0.96 0.107z"></path>
</symbol>
<symbol id="burger" viewBox="0 0 32 32">
<title>burger</title>
<path fill="none" stroke="#fff" style="stroke: var(--color1, #fff)" stroke-linejoin="round" stroke-linecap="round" stroke-miterlimit="4" stroke-width="2.2857" d="M28 13.333h-24"></path>
<path fill="none" stroke="#fff" style="stroke: var(--color1, #fff)" stroke-linejoin="round" stroke-linecap="round" stroke-miterlimit="4" stroke-width="2.2857" d="M28 8h-24"></path>
<path fill="none" stroke="#fff" style="stroke: var(--color1, #fff)" stroke-linejoin="round" stroke-linecap="round" stroke-miterlimit="4" stroke-width="2.2857" d="M28 18.667h-24"></path>
<path fill="none" stroke="#fff" style="stroke: var(--color1, #fff)" stroke-linejoin="round" stroke-linecap="round" stroke-miterlimit="4" stroke-width="2.2857" d="M28 24h-24"></path>
</symbol>
<symbol id="up" viewBox="0 0 32 32">
<title>up</title>
<path stroke-linejoin="round" stroke-linecap="round" stroke-miterlimit="4" stroke-width="3.2" d="M8 20l8-8 8 8"></path>
</symbol>
<symbol id="down" viewBox="0 0 32 32">
<title>down</title>
<path stroke-linejoin="round" stroke-linecap="round" stroke-miterlimit="4" stroke-width="3.2" d="M8 12l8 8 8-8"></path>
</symbol>
<symbol id="dot" viewBox="0 0 32 32">
<title>dot</title>
<path fill="#e8e8e8" style="fill: var(--color2, #e8e8e8)" d="M32 16c0 8.837-7.163 16-16 16s-16-7.163-16-16c0-8.837 7.163-16 16-16s16 7.163 16 16z"></path>
</symbol>
<symbol id="trash" viewBox="0 0 32 32">
<title>trash</title>
<path stroke-linejoin="round" stroke-linecap="round" stroke-miterlimit="4" stroke-width="2.6667" d="M12 4h8"></path>
<path stroke-linejoin="round" stroke-linecap="round" stroke-miterlimit="4" stroke-width="2.6667" d="M4 8h24M25.333 8l-0.935 14.026c-0.14 2.104-0.21 3.156-0.665 3.954-0.4 0.702-1.004 1.267-1.731 1.62-0.826 0.4-1.881 0.4-3.99 0.4h-4.025c-2.109 0-3.163 0-3.99-0.4-0.727-0.353-1.331-0.917-1.731-1.62-0.455-0.798-0.525-1.85-0.665-3.954l-0.935-14.026"></path>
</symbol>
<symbol id="trash-black" viewBox="0 0 32 32">
<title>trash-black</title>
<path d="M16 0c8.837 0 16 7.163 16 16s-7.163 16-16 16c-8.837 0-16-7.163-16-16s7.163-16 16-16z"></path>
<path fill="none" stroke="#fff" style="stroke: var(--color1, #fff)" stroke-linejoin="round" stroke-linecap="round" stroke-miterlimit="4" stroke-width="1.1429" d="M14.286 10.857h3.429"></path>
<path fill="none" stroke="#fff" style="stroke: var(--color1, #fff)" stroke-linejoin="round" stroke-linecap="round" stroke-miterlimit="4" stroke-width="1.1429" d="M10.857 12.571h10.286M20 12.571l-0.401 6.011c-0.060 0.902-0.090 1.353-0.285 1.695-0.172 0.301-0.43 0.543-0.742 0.694-0.354 0.172-0.806 0.172-1.71 0.172h-1.725c-0.904 0-1.356 0-1.71-0.172-0.312-0.151-0.57-0.393-0.742-0.694-0.195-0.342-0.225-0.793-0.285-1.695l-0.401-6.011"></path>
</symbol>
<symbol id="trash-mob" viewBox="0 0 32 32">
<title>trash-mob</title>
<path fill="none" stroke="#e8e8e8" style="stroke: var(--color2, #e8e8e8)" stroke-linejoin="miter" stroke-linecap="butt" stroke-miterlimit="4" stroke-width="0.8889" d="M16 0.444c8.591 0 15.556 6.964 15.556 15.556s-6.964 15.556-15.556 15.556c-8.591 0-15.556-6.964-15.556-15.556s6.964-15.556 15.556-15.556z"></path>
<path fill="none" stroke="#1a1a1a" style="stroke: var(--color3, #1a1a1a)" stroke-linejoin="round" stroke-linecap="round" stroke-miterlimit="4" stroke-width="1.1556" d="M14.222 10.667h3.556"></path>
<path fill="none" stroke="#1a1a1a" style="stroke: var(--color3, #1a1a1a)" stroke-linejoin="round" stroke-linecap="round" stroke-miterlimit="4" stroke-width="1.1556" d="M10.667 12.444h10.667M20.148 12.444l-0.416 6.234c-0.062 0.935-0.093 1.403-0.295 1.757-0.178 0.312-0.446 0.563-0.769 0.72-0.367 0.178-0.836 0.178-1.773 0.178h-1.789c-0.937 0-1.406 0-1.773-0.178-0.323-0.157-0.592-0.408-0.769-0.72-0.202-0.355-0.233-0.822-0.295-1.757l-0.416-6.234"></path>
</symbol>
<symbol id="trash-default" viewBox="0 0 32 32">
<title>trash-default</title>
<path fill="none" stroke="#e8e8e8" style="stroke: var(--color2, #e8e8e8)" stroke-linejoin="miter" stroke-linecap="butt" stroke-miterlimit="4" stroke-width="0.7619" d="M16 0.381c8.626 0 15.619 6.993 15.619 15.619s-6.993 15.619-15.619 15.619c-8.626 0-15.619-6.993-15.619-15.619s6.993-15.619 15.619-15.619z"></path>
<path fill="none" stroke="#1a1a1a" style="stroke: var(--color3, #1a1a1a)" stroke-linejoin="round" stroke-linecap="round" stroke-miterlimit="4" stroke-width="1.1429" d="M14.286 10.857h3.429"></path>
<path fill="none" stroke="#1a1a1a" style="stroke: var(--color3, #1a1a1a)" stroke-linejoin="round" stroke-linecap="round" stroke-miterlimit="4" stroke-width="1.1429" d="M10.857 12.571h10.286M20 12.571l-0.401 6.011c-0.060 0.902-0.090 1.353-0.285 1.695-0.172 0.301-0.43 0.543-0.742 0.694-0.354 0.172-0.806 0.172-1.71 0.172h-1.725c-0.904 0-1.356 0-1.71-0.172-0.312-0.151-0.57-0.393-0.742-0.694-0.195-0.342-0.225-0.793-0.285-1.695l-0.401-6.011"></path>
</symbol>
<symbol id="arrow-up-right" viewBox="0 0 32 32">
<title>arrow-up-right</title>
<path stroke-linejoin="round" stroke-linecap="round" stroke-miterlimit="4" stroke-width="2.6" d="M9.334 22.666l13.333-13.333"></path>
<path stroke-linejoin="round" stroke-linecap="round" stroke-miterlimit="4" stroke-width="2.6" d="M9.334 9.333h13.333v13.333"></path>
</symbol>
<symbol id="arrow-up-right-default" viewBox="0 0 32 32">
<title>arrow-up-right-default</title>
<path fill="none" stroke="#e8e8e8" style="stroke: var(--color2, #e8e8e8)" stroke-linejoin="miter" stroke-linecap="butt" stroke-miterlimit="4" stroke-width="0.7619" d="M16 0.381c8.626 0 15.619 6.993 15.619 15.619s-6.993 15.619-15.619 15.619c-8.626 0-15.619-6.993-15.619-15.619s6.993-15.619 15.619-15.619z"></path>
<path fill="none" stroke="#050505" style="stroke: var(--color4, #050505)" stroke-linejoin="round" stroke-linecap="round" stroke-miterlimit="4" stroke-width="1.1429" d="M13.143 18.857l5.714-5.714"></path>
<path fill="none" stroke="#050505" style="stroke: var(--color4, #050505)" stroke-linejoin="round" stroke-linecap="round" stroke-miterlimit="4" stroke-width="1.1429" d="M13.143 13.143h5.714v5.714"></path>
</symbol>
<symbol id="arrow-up-right-hover" viewBox="0 0 32 32">
<title>arrow-up-right-hover</title>
<path d="M16 0c8.837 0 16 7.163 16 16s-7.163 16-16 16c-8.837 0-16-7.163-16-16s7.163-16 16-16z"></path>
<path fill="none" stroke="#fff" style="stroke: var(--color1, #fff)" stroke-linejoin="round" stroke-linecap="round" stroke-miterlimit="4" stroke-width="1.1429" d="M13.143 18.857l5.714-5.714"></path>
<path fill="none" stroke="#fff" style="stroke: var(--color1, #fff)" stroke-linejoin="round" stroke-linecap="round" stroke-miterlimit="4" stroke-width="1.1429" d="M13.143 13.143h5.714v5.714"></path>
</symbol>
<symbol id="heart-1" viewBox="0 0 32 32">
<title>heart-1</title>
<path stroke-linejoin="round" stroke-linecap="round" stroke-miterlimit="4" stroke-width="2.6667" d="M27.786 6.146c-0.681-0.681-1.49-1.222-2.38-1.591s-1.844-0.559-2.807-0.559c-0.963 0-1.917 0.19-2.807 0.559s-1.698 0.909-2.38 1.591l-1.413 1.413-1.413-1.413c-1.376-1.376-3.241-2.148-5.187-2.148s-3.811 0.773-5.187 2.148c-1.376 1.376-2.148 3.241-2.148 5.187s0.773 3.811 2.148 5.187l11.787 11.787 11.787-11.787c0.681-0.681 1.222-1.49 1.591-2.38s0.559-1.844 0.559-2.807c0-0.963-0.19-1.917-0.559-2.807s-0.909-1.699-1.591-2.38z"></path>
</symbol>
<symbol id="heart" viewBox="0 0 32 32">
<title>heart</title>
<path stroke-linejoin="round" stroke-linecap="round" stroke-miterlimit="4" stroke-width="2.6667" d="M27.786 6.146c-0.681-0.681-1.49-1.222-2.38-1.591s-1.844-0.559-2.807-0.559c-0.963 0-1.917 0.19-2.807 0.559s-1.698 0.909-2.38 1.591l-1.413 1.413-1.413-1.413c-1.376-1.376-3.241-2.148-5.187-2.148s-3.811 0.773-5.187 2.148c-1.376 1.376-2.148 3.241-2.148 5.187s0.773 3.811 2.148 5.187l11.787 11.787 11.787-11.787c0.681-0.681 1.222-1.49 1.591-2.38s0.559-1.844 0.559-2.807c0-0.963-0.19-1.917-0.559-2.807s-0.909-1.699-1.591-2.38z"></path>
</symbol>
<symbol id="heart-mob" viewBox="0 0 32 32">
<title>heart-mob</title>
<path stroke-linejoin="miter" stroke-linecap="butt" stroke-miterlimit="4" stroke-width="0.8889" d="M16 0.444c8.591 0 15.556 6.964 15.556 15.556s-6.964 15.556-15.556 15.556c-8.591 0-15.556-6.964-15.556-15.556s6.964-15.556 15.556-15.556z"></path>
<path stroke-linejoin="round" stroke-linecap="round" stroke-miterlimit="4" stroke-width="1.1556" d="M21.238 11.621c-0.303-0.303-0.662-0.543-1.058-0.707s-0.819-0.248-1.248-0.248c-0.428 0-0.852 0.084-1.248 0.248s-0.755 0.404-1.058 0.707l-0.628 0.628-0.628-0.628c-0.611-0.611-1.441-0.955-2.305-0.955s-1.694 0.343-2.305 0.955-0.955 1.441-0.955 2.305c0 0.865 0.343 1.694 0.955 2.305l5.239 5.238 5.239-5.239c0.303-0.303 0.543-0.662 0.707-1.058s0.248-0.819 0.248-1.248c0-0.428-0.084-0.852-0.248-1.248s-0.404-0.755-0.707-1.057z"></path>
</symbol>
<symbol id="heart-default" viewBox="0 0 32 32">
<title>heart-default</title>
<path stroke-linejoin="miter" stroke-linecap="butt" stroke-miterlimit="4" stroke-width="0.7619" d="M16 0.381c8.626 0 15.619 6.993 15.619 15.619s-6.993 15.619-15.619 15.619c-8.626 0-15.619-6.993-15.619-15.619s6.993-15.619 15.619-15.619z"></path>
<path stroke-linejoin="round" stroke-linecap="round" stroke-miterlimit="4" stroke-width="1.1429" d="M21.051 11.777c-0.292-0.292-0.638-0.524-1.020-0.682s-0.79-0.239-1.203-0.239c-0.413 0-0.822 0.081-1.203 0.239s-0.728 0.39-1.020 0.682l-0.606 0.606-0.606-0.606c-0.59-0.59-1.389-0.921-2.223-0.921s-1.633 0.331-2.223 0.921c-0.59 0.59-0.921 1.389-0.921 2.223s0.331 1.633 0.921 2.223l5.051 5.051 5.051-5.051c0.292-0.292 0.524-0.638 0.682-1.020s0.239-0.79 0.239-1.203c0-0.413-0.081-0.822-0.239-1.203s-0.39-0.728-0.682-1.020z"></path>
</symbol>
<symbol id="check-empty" viewBox="0 0 32 32">
<title>check-empty</title>
<path stroke-linejoin="miter" stroke-linecap="butt" stroke-miterlimit="4" stroke-width="1.6" d="M11.2 1.6h9.6c5.302 0 9.6 4.298 9.6 9.6v9.6c0 5.302-4.298 9.6-9.6 9.6h-9.6c-5.302 0-9.6-4.298-9.6-9.6v-9.6c0-5.302 4.298-9.6 9.6-9.6z"></path>
</symbol>
<symbol id="check-active" viewBox="0 0 32 32">
<title>check-active</title>
<path d="M10.667 0h10.667c5.891 0 10.667 4.776 10.667 10.667v10.667c0 5.891-4.776 10.667-10.667 10.667h-10.667c-5.891 0-10.667-4.776-10.667-10.667v-10.667c0-5.891 4.776-10.667 10.667-10.667z"></path>
<path fill="none" stroke="#fff" style="stroke: var(--color1, #fff)" stroke-linejoin="miter" stroke-linecap="butt" stroke-miterlimit="4" stroke-width="3.5735" d="M8.889 17.778l5.333 3.556 9.778-10.667"></path>
</symbol>
<symbol id="eye" viewBox="0 0 32 32">
<title>eye</title>
<path stroke-linejoin="round" stroke-linecap="round" stroke-miterlimit="4" stroke-width="2.88" d="M1.333 16c0 0 5.333-10.667 14.667-10.667s14.667 10.667 14.667 10.667-5.333 10.667-14.667 10.667c-9.333 0-14.667-10.667-14.667-10.667z"></path>
<path stroke-linejoin="round" stroke-linecap="round" stroke-miterlimit="4" stroke-width="2.88" d="M16 20c2.209 0 4-1.791 4-4s-1.791-4-4-4c-2.209 0-4 1.791-4 4s1.791 4 4 4z"></path>
</symbol>
<symbol id="eye-off" viewBox="0 0 32 32">
<title>eye-off</title>
<path stroke-linejoin="round" stroke-linecap="round" stroke-miterlimit="4" stroke-width="2.88" d="M23.92 23.92c-2.279 1.737-5.055 2.7-7.92 2.747-9.333 0-14.667-10.667-14.667-10.667 1.659-3.091 3.959-5.791 6.747-7.92M13.2 5.654c0.918-0.215 1.857-0.322 2.8-0.32 9.333 0 14.667 10.667 14.667 10.667-0.809 1.514-1.775 2.94-2.88 4.253M18.826 18.827c-0.366 0.393-0.808 0.708-1.298 0.927s-1.020 0.336-1.557 0.346c-0.537 0.009-1.071-0.089-1.569-0.291s-0.951-0.501-1.33-0.88c-0.38-0.38-0.679-0.832-0.88-1.33s-0.3-1.032-0.29-1.569c0.009-0.537 0.127-1.067 0.346-1.557s0.534-0.932 0.927-1.298"></path>
<path stroke-linejoin="round" stroke-linecap="round" stroke-miterlimit="4" stroke-width="2.88" d="M1.333 1.334l29.333 29.333"></path>
</symbol>
</defs>
</svg>
